<svg xmlns="http://www.w3.org/2000/svg" width="256" height="256" viewBox="0 0 100 100"><rect width="100" height="100" rx="20" fill="#6495ed"></rect><path fill="#fff" d="M55.31 49.37L55.31 49.37Q55.31 43.61 53.56 39.52Q51.80 35.42 48.79 32.81Q45.77 30.20 41.77 28.98Q37.76 27.77 33.17 27.77L33.17 27.77Q30.29 27.77 28.18 27.95Q26.06 28.13 24.26 28.49L24.26 28.49L24.26 71.33Q26.42 71.87 28.90 72.05Q31.37 72.23 33.98 72.23L33.98 72.23Q44.60 72.23 49.96 66.47Q55.31 60.71 55.31 49.37ZM62.78 49.37L62.78 49.37Q62.78 56.75 60.76 62.20Q58.73 67.64 55.00 71.24Q51.26 74.84 45.95 76.59Q40.64 78.35 34.07 78.35L34.07 78.35Q31.19 78.35 27.59 78.13Q23.99 77.90 20.75 76.91L20.75 76.91Q16.97 75.74 16.97 72.77L16.97 72.77L16.97 26.51Q16.97 25.07 17.69 24.30Q18.41 23.54 19.94 23.09L19.94 23.09Q22.73 22.19 26.24 21.92Q29.75 21.65 33.26 21.65L33.26 21.65Q39.83 21.65 45.28 23.41Q50.72 25.16 54.59 28.63Q58.46 32.09 60.62 37.27Q62.78 42.44 62.78 49.37ZM83.03 77.18L83.03 77.18Q82.58 77.36 81.68 77.58Q80.78 77.81 79.70 77.81L79.70 77.81Q75.74 77.81 75.74 74.48L75.74 74.48L75.74 22.82Q76.19 22.64 77.14 22.41Q78.08 22.19 79.16 22.19L79.16 22.19Q83.03 22.19 83.03 25.52L83.03 25.52L83.03 77.18Z"></path></svg>